<?xml version="1.0" encoding="UTF-8"?>
<svg id="Layer_1" xmlns="http://www.w3.org/2000/svg" xmlns:xlink="http://www.w3.org/1999/xlink" version="1.1" viewBox="0 0 159.39 42.41">
  <!-- Generator: Adobe Illustrator 29.3.1, SVG Export Plug-In . SVG Version: 2.1.0 Build 151)  -->
  <defs>
    <style>
      .st0 {
        fill: url(#linear-gradient2);
      }

      .st1 {
        fill: url(#linear-gradient1);
      }

      .st2 {
        fill: url(#linear-gradient);
      }

      .st3 {
        fill: #fff;
      }
    </style>
    <linearGradient id="linear-gradient" x1="19.44" y1="21.24" x2="36.99" y2="21.24" gradientUnits="userSpaceOnUse">
      <stop offset="0" stop-color="#cce0f4"/>
      <stop offset="0" stop-color="#c2dcf2"/>
      <stop offset="0" stop-color="#a9d2ee"/>
      <stop offset="0" stop-color="#7fc2e7"/>
      <stop offset="0" stop-color="#46abdd"/>
      <stop offset="0" stop-color="#1e9cd7"/>
      <stop offset=".46" stop-color="#0075be"/>
      <stop offset=".99" stop-color="#005b97"/>
    </linearGradient>
    <linearGradient id="linear-gradient1" x1="23.84" y1="18.75" x2="27.98" y2="18.75" xlink:href="#linear-gradient"/>
    <linearGradient id="linear-gradient2" x1="28.47" y1="18.75" x2="32.61" y2="18.75" xlink:href="#linear-gradient"/>
  </defs>
  <g>
    <path class="st2" d="M28.06,9.91c5.94-.12,10.34,5.6,8.52,11.32-.88,2.78-4.67,7.76-6.82,9.97q-1.79,1.85-3.34-.08c-2.03-2.51-6.21-7.77-6.81-10.8-1.07-5.39,2.99-10.31,8.44-10.41ZM35.04,18.61c0-3.77-3.06-6.83-6.83-6.83s-6.83,3.06-6.83,6.83,3.06,6.83,6.83,6.83,6.83-3.06,6.83-6.83Z"/>
    <path class="st1" d="M27.28,22.24c.33.11.67-.12.67-.47.01-1.48.06-3.37,0-4.63-.02-.47-.38-.71-.76-.88-.28-.12-.58-.24-.95-.38-.59-.23-1.23-.47-1.81-.63-.31-.05-.45-.04-.5.31-.12.81-.11,4.28,0,5.1.03.25.13.44.39.53l2.97,1.05Z"/>
    <path class="st0" d="M29.17,22.24c-.33.11-.67-.12-.67-.47-.01-1.48-.06-3.37,0-4.63.02-.47.38-.71.76-.88.28-.12.58-.24.95-.38.59-.23,1.23-.47,1.81-.63.31-.05.45-.04.5.31.12.81.11,4.28,0,5.1-.03.25-.13.44-.39.53l-2.97,1.05Z"/>
  </g>
  <g>
    <path class="st3" d="M42.94,18.94c0-.88.23-1.66.68-2.34.45-.67,1.08-1.2,1.89-1.58.81-.38,1.74-.57,2.8-.57s1.9.18,2.66.54c.75.36,1.34.87,1.76,1.53.42.66.64,1.45.67,2.36h-2.65c-.03-.65-.26-1.15-.7-1.52-.44-.36-1.03-.55-1.78-.55-.81,0-1.46.18-1.95.55-.49.37-.73.86-.73,1.5,0,.54.15.96.44,1.27.3.31.76.54,1.4.69l2.38.54c1.29.28,2.26.75,2.89,1.42.63.67.95,1.57.95,2.7,0,.92-.23,1.74-.68,2.44-.45.7-1.1,1.24-1.93,1.62s-1.81.57-2.92.57-1.99-.18-2.79-.55c-.8-.36-1.42-.88-1.87-1.54-.45-.66-.69-1.44-.71-2.33h2.65c.01.63.27,1.13.75,1.5.49.37,1.15.55,1.99.55s1.58-.18,2.1-.55c.52-.37.77-.85.77-1.46,0-.52-.14-.94-.41-1.25-.28-.31-.72-.53-1.34-.65l-2.4-.54c-1.28-.28-2.25-.78-2.91-1.5-.66-.72-.99-1.67-.99-2.84Z"/>
    <path class="st3" d="M54.66,19.63h6.45v2.11h-6.45v-2.11ZM59.14,29.83h-2.52v-13.39h2.52v13.39Z"/>
    <path class="st3" d="M69.62,19.63h2.52v10.21h-2.33l-.19-1.36c-.3.48-.76.88-1.36,1.18-.61.3-1.25.45-1.94.45-1.17,0-2.09-.37-2.75-1.12-.66-.74-.99-1.74-.99-2.98v-6.39h2.52v5.5c0,.96.19,1.66.56,2.09.37.43.91.64,1.61.64.8,0,1.39-.24,1.78-.71.39-.47.58-1.19.58-2.16v-5.35Z"/>
    <path class="st3" d="M78.74,30.1c-.99,0-1.84-.22-2.55-.67-.71-.45-1.26-1.07-1.65-1.87-.39-.8-.59-1.73-.59-2.79s.2-2,.59-2.82.96-1.46,1.71-1.93c.74-.47,1.63-.7,2.65-.7.72,0,1.37.14,1.96.42.59.28,1.05.68,1.36,1.19v-6.47h2.5v15.38h-2.31l-.17-1.59c-.3.58-.77,1.03-1.4,1.36-.63.33-1.33.5-2.1.5ZM79.29,27.79c.59,0,1.1-.13,1.53-.38.43-.25.76-.62,1-1.1s.36-1.02.36-1.62-.12-1.16-.36-1.62c-.24-.46-.58-.83-1-1.1-.43-.27-.94-.4-1.53-.4s-1.08.13-1.51.4c-.43.27-.75.64-.98,1.11-.23.47-.34,1.01-.34,1.61s.11,1.14.34,1.61c.23.47.55.83.98,1.1.43.26.93.39,1.51.39Z"/>
    <path class="st3" d="M88.84,19.63l3.33,9.42-1.36,2.58-4.63-12.01h2.67ZM86.44,34.57v-2.09h1.51c.33,0,.62-.04.87-.11.25-.08.47-.22.67-.42.2-.21.37-.51.51-.91l4.24-11.41h2.6l-5,12.48c-.37.94-.84,1.62-1.41,2.05-.57.43-1.27.64-2.11.64-.36,0-.69-.02-1-.05-.31-.03-.6-.09-.88-.18Z"/>
    <path class="st3" d="M97.77,18.94c0-.88.23-1.66.68-2.34.45-.67,1.08-1.2,1.89-1.58.8-.38,1.74-.57,2.8-.57s1.91.18,2.66.54c.75.36,1.34.87,1.76,1.53.42.66.64,1.45.67,2.36h-2.64c-.03-.65-.26-1.15-.7-1.52-.44-.36-1.03-.55-1.78-.55-.81,0-1.46.18-1.95.55-.49.37-.73.86-.73,1.5,0,.54.15.96.44,1.27.3.31.76.54,1.39.69l2.38.54c1.29.28,2.26.75,2.89,1.42.63.67.95,1.57.95,2.7,0,.92-.23,1.74-.68,2.44-.46.7-1.1,1.24-1.93,1.62-.83.38-1.81.57-2.92.57s-1.99-.18-2.79-.55c-.8-.36-1.42-.88-1.87-1.54-.45-.66-.69-1.44-.71-2.33h2.65c.01.63.27,1.13.75,1.5s1.15.55,1.99.55c.88,0,1.58-.18,2.1-.55.52-.37.78-.85.78-1.46,0-.52-.14-.94-.41-1.25-.28-.31-.72-.53-1.34-.65l-2.4-.54c-1.28-.28-2.25-.78-2.91-1.5-.66-.72-.99-1.67-.99-2.84Z"/>
    <path class="st3" d="M110.5,34.57v-14.94h2.33l.17,1.55c.3-.59.77-1.05,1.41-1.37.63-.32,1.33-.49,2.09-.49.98,0,1.82.22,2.53.66.71.44,1.26,1.05,1.66,1.84s.6,1.72.6,2.79-.19,2-.56,2.83c-.37.83-.91,1.48-1.62,1.95-.71.48-1.57.71-2.59.71-.76,0-1.45-.14-2.08-.43-.63-.29-1.1-.69-1.42-1.2v6.1h-2.52ZM113.04,24.73c0,.61.12,1.14.35,1.61.23.47.57.84,1,1.11.43.27.94.4,1.52.4s1.1-.13,1.53-.4c.43-.27.75-.64.97-1.11.22-.47.33-1.01.33-1.61s-.11-1.14-.33-1.61c-.22-.47-.54-.84-.97-1.11-.43-.27-.94-.4-1.53-.4s-1.08.13-1.52.39c-.43.26-.77.63-1,1.09-.23.47-.35,1.01-.35,1.63Z"/>
    <path class="st3" d="M122.69,24.71c0-1.06.23-1.99.7-2.8.47-.81,1.12-1.44,1.94-1.89.83-.46,1.76-.68,2.81-.68s2,.23,2.82.68c.82.46,1.46,1.08,1.93,1.89.47.81.7,1.74.7,2.8s-.23,1.99-.7,2.8c-.47.81-1.11,1.44-1.93,1.89-.82.45-1.76.68-2.82.68s-1.98-.23-2.81-.68c-.83-.46-1.47-1.08-1.94-1.89-.47-.81-.7-1.74-.7-2.8ZM125.21,24.71c0,.62.13,1.16.38,1.63.25.47.6.83,1.03,1.09.43.26.94.39,1.52.39s1.09-.13,1.53-.39c.44-.26.79-.63,1.03-1.09.25-.47.37-1.01.37-1.63s-.12-1.18-.37-1.64c-.25-.46-.59-.82-1.03-1.08-.44-.26-.95-.39-1.53-.39s-1.08.13-1.52.39c-.43.26-.78.62-1.03,1.08-.26.46-.38,1.01-.38,1.64Z"/>
    <path class="st3" d="M134.49,19.63h6.45v2.11h-6.45v-2.11ZM138.98,29.83h-2.52v-13.39h2.52v13.39Z"/>
  </g>
</svg>